<?xml version="1.0" standalone="no"?>
<!DOCTYPE svg PUBLIC "-//W3C//DTD SVG 20010904//EN"
 "http://www.w3.org/TR/2001/REC-SVG-20010904/DTD/svg10.dtd">
<svg version="1.0" xmlns="http://www.w3.org/2000/svg"
 width="225.000000pt" height="225.000000pt" viewBox="0 0 225.000000 225.000000"
 preserveAspectRatio="xMidYMid meet">

<g transform="translate(0.000000,225.000000) scale(0.100000,-0.100000)"
fill="#000000" stroke="none">
<path d="M993 1670 c-123 -25 -232 -113 -288 -233 -52 -112 -54 -127 -10 -78
20 22 66 55 101 72 58 29 71 31 132 27 37 -3 82 -13 100 -22 18 -9 81 -62 140
-116 160 -149 253 -190 427 -190 211 0 345 81 426 255 46 100 47 114 4 67 -54
-61 -143 -102 -219 -102 -89 0 -143 30 -266 146 -114 107 -174 145 -265 169
-63 16 -211 19 -282 5z"/>
<path d="M500 1104 c-71 -19 -153 -68 -197 -119 -33 -37 -93 -150 -108 -204
-6 -19 0 -15 30 17 54 61 143 102 219 102 89 0 143 -30 266 -146 154 -145 241
-184 407 -184 213 0 352 79 428 243 52 111 54 127 12 80 -20 -22 -60 -52 -89
-69 -46 -25 -63 -29 -133 -29 -101 0 -116 8 -253 135 -114 107 -184 150 -277
175 -74 19 -232 19 -305 -1z"/>
</g>
</svg>
